<?xml version="1.0" standalone="no"?>
<!DOCTYPE svg PUBLIC "-//W3C//DTD SVG 20010904//EN" "http://www.w3.org/TR/2001/REC-SVG-20010904/DTD/svg10.dtd">
<!-- Created using Krita: https://krita.org -->
<svg xmlns="http://www.w3.org/2000/svg" 
    xmlns:xlink="http://www.w3.org/1999/xlink"
    xmlns:krita="http://krita.org/namespaces/svg/krita"
    xmlns:sodipodi="http://sodipodi.sourceforge.net/DTD/sodipodi-0.dtd"
    width="512pt"
    height="512pt"
    viewBox="0 0 37 35">
<defs>
  <linearGradient id="gradient0" gradientUnits="objectBoundingBox" x1="0.5" y1="1" x2="0.5" y2="1.77635683940025e-15" spreadMethod="pad">
   <stop stop-color="#ffffff" offset="0.705882352941177" stop-opacity="1"/>
   <stop stop-color="#6b6a7b" offset="1" stop-opacity="1"/>
  </linearGradient>
  <linearGradient id="gradient1" gradientUnits="objectBoundingBox" x1="0.5" y1="0.999999999999999" x2="0.5" y2="1.11022302462516e-16" spreadMethod="pad">
   <stop stop-color="#ffffff" offset="0.867647051811218" stop-opacity="1"/>
   <stop stop-color="#6b6a7b" offset="1" stop-opacity="1"/>
 </linearGradient>
 </defs>
<path id="groundStone" transform="translate(0.5, 28.5)" fill="#797979" fill-rule="evenodd" stroke="#4c4c4c" stroke-width="0.2" stroke-linecap="round" stroke-linejoin="round" d="M0 1l19 0l0 -1l14 0l0 3l-1 0l0 2l-2 0l0 1l-30 0Z" sodipodi:nodetypes="cccccccccc"/>
<path id="groundDirt" transform="translate(0.5, 25.5)" fill="#3d2500" fill-rule="evenodd" stroke="#8c8c8c" stroke-width="0.2" stroke-linecap="round" stroke-linejoin="round" d="M0 1l18 0l0 -1l17 0l0 2l-2 0l0 1l-14 0l0 1l-19 0Z" sodipodi:nodetypes="ccccccccccc"/>
<path id="groundGrass" transform="translate(0.5, 24.5)" fill="#297f00" fill-rule="evenodd" stroke="#4c4c4c" stroke-width="0.2" stroke-linecap="round" stroke-linejoin="round" d="M18 0l18 0l0 1l-17 0l0 1l-19 0l0 -1l18 0Z" sodipodi:nodetypes="ccccccccc"/>
<rect id="treeTrunk" transform="translate(16.5, 22.5)" fill="url(#gradient0)" fill-rule="evenodd" stroke="#4c4c4c" stroke-width="0.2" stroke-linecap="round" stroke-linejoin="round" width="1" height="3"/>
<path id="treeTop" transform="translate(14.5, 19.5)" fill="#297f00" fill-rule="evenodd" stroke="#4c4c4c" stroke-width="0.2" stroke-linecap="round" stroke-linejoin="round" d="M0 3l0 -1l1 0l0 -1l1 0l0 -1l1 0l0 1l1 0l0 1l1 0l0 1Z" sodipodi:nodetypes="ccccccccccccc"/>
<path id="lighthouseMain" transform="translate(26.5, 8.5)" fill="url(#gradient1)" fill-rule="evenodd" stroke="#4c4c4c" stroke-width="0.2" stroke-linecap="round" stroke-linejoin="round" d="M1 0l6 0l0 7l0.5 0l0 0.5l0.5 0l0 0.5l0 8l-8 0l0 -8l0 -0.5l0.5 0l0 -0.5l0.5 0Z" sodipodi:nodetypes="ccccccccccccccc"/>
<rect id="lighthouseDoor" transform="translate(29.5, 22.5)" fill="#780422" fill-rule="evenodd" stroke="#4c4c4c" stroke-width="0.2" stroke-linecap="round" stroke-linejoin="round" width="1" height="2"/>
<rect id="lighthouseDeck" transform="translate(26.5, 7.5)" fill="#ffffff" fill-rule="evenodd" stroke="#4c4c4c" stroke-width="0.2" stroke-linecap="round" stroke-linejoin="round" width="8" height="1"/>
<rect id="lighthouseLightGlow" transform="translate(27.5, 4.5)" fill="#ffea00" fill-opacity="0.45" fill-rule="evenodd" stroke="none" stroke-width="0.2" stroke-linecap="round" stroke-linejoin="round" width="6" height="3"/>
<rect id="lighthouseLight" transform="translate(29.5, 4.5)" fill="#ffea00" fill-rule="evenodd" stroke="#4c4c4c" stroke-width="0.2" stroke-linecap="round" stroke-linejoin="round" width="2" height="3"/>
<path id="lighthouseTop" transform="translate(26.5, 1.5)" fill="#ffffff" fill-rule="evenodd" stroke="#4c4c4c" stroke-width="0.2" stroke-linecap="round" stroke-linejoin="round" d="M2.5 0l3 0l0 0.5l0.5 0l0 0.5l0.5 0l0 0.5l0.5 0l0 0.5l0.5 0l0 0.5l0.5 0l0 0.5l-8 0l0 -0.5l0.5 0l0 -0.5l0.5 0l0 -0.5l0.5 0l0 -0.5l0.5 0l0 -0.5l0.5 0l0 -0.5Z" sodipodi:nodetypes="cccccccccccccccccccccccccc"/>
<path id="letterH" transform="translate(8.5, 0.5)" fill="#ffea00" fill-rule="evenodd" stroke="#4c4c4c" stroke-width="0.35" stroke-linecap="round" stroke-linejoin="round" d="M0 0l4 0l-0.5 2l0 6.5l9.5 0l0 -6.5l-0.5 -2l4 0l-0.5 2l0 15l0.5 2l-4 0l0.5 -2l0 -6.5l-9.5 0l0 6.5l0.5 2l-4 0l0.5 -2l0 -15Z"/>
<path id="letterL" transform="translate(0.5, 3.5)" fill="#ffea00" fill-rule="evenodd" stroke="#4c4c4c" stroke-width="0.35" stroke-linecap="round" stroke-linejoin="round" d="M0 0l4 0l-0.5 2l0 16l7.5 0l2 -0.5l0 4l-2 -0.5l-11 0l0.5 -2l0 -16Z"/>
</svg>
